# xmcd CD database file generated by Grip 3.0.5
# 
# Track frame offsets:
#       182
#       11362
#       23702
#       36887
#       46825
#       59735
#       72297
#       85040
#       97610
#       110115
#       123572
#       133567
#       144452
#       156000
#       166720
#       179322
#       190270
#       203135
#       216287
# 
# Disc length: 3065 seconds
# 
# Revision: 2
# Processed by: cddbd v1.4PL0 Copyright (c) Steve Scherf et al.
# Submitted via: Grip 3.0.5
# 
DISCID=000bf713
DTITLE=Roy Orbison - Greatest Hits
DYEAR=1986
DGENRE=Blues
TTITLE0=Only The Lonely
TTITLE1=Leah
TTITLE2=In Dreams
TTITLE3=Uptown
TTITLE4=It's Over
TTITLE5=Crying
TTITLE6=Dream Baby
TTITLE7=Blue Angel
TTITLE8=Working For The Man
TTITLE9=Candy Man
TTITLE10=Running Scared
TTITLE11=Falling
TTITLE12=Claudette
TTITLE13=Ooby Dooby
TTITLE14=I'm Hurtin
TTITLE15=Mean Woman Blues
TTITLE16=Lana
TTITLE17=Blue Bayou
TTITLE18=Oh, Pretty Woman
EXTD=
EXTT0=
EXTT1=
EXTT2=
EXTT3=
EXTT4=
EXTT5=
EXTT6=
EXTT7=
EXTT8=
EXTT9=
EXTT10=
EXTT11=
EXTT12=
EXTT13=
EXTT14=
EXTT15=
EXTT16=
EXTT17=
EXTT18=
PLAYORDER=
